<?xml version="1.0" encoding="UTF-8"?>
<svg width="146px" height="152px" viewBox="0 0 146 152" version="1.1" xmlns="http://www.w3.org/2000/svg" xmlns:xlink="http://www.w3.org/1999/xlink">
    <title>&lt; copy 2</title>
    <g id="Page-1" stroke="none" stroke-width="1" fill="none" fill-rule="evenodd">
        <g id="&lt;-copy-2" fill="#141DFF" fill-rule="nonzero">
            <path d="M4.816,103.243 C1.60533333,102.039 0,99.7313333 0,96.32 L0,54.18 C0,50.7686667 1.60533333,48.461 4.816,47.257 L139.062,0.602 L141.47,0 C142.874667,0 143.978333,0.501666667 144.781,1.505 C145.583667,2.50833333 145.985,3.81266667 145.985,5.418 L145.985,40.936 C145.985,44.1466667 144.379667,46.354 141.169,47.558 L67.123,71.638 C64.5143333,72.4406667 63.21,73.745 63.21,75.551 C63.21,77.357 64.5143333,78.6613333 67.123,79.464 L141.169,103.544 C144.379667,104.748 145.985,106.955333 145.985,110.166 L145.985,145.684 C145.985,147.289333 145.583667,148.593667 144.781,149.597 C143.978333,150.600333 142.874667,151.102 141.47,151.102 L139.062,150.5 L4.816,103.243 Z" id="Path"></path>
        </g>
    </g>
</svg>